<mxfile host="app.diagrams.net" modified="2023-12-25T07:42:16.552Z" agent="Mozilla/5.0 (X11; Ubuntu; Linux x86_64; rv:120.0) Gecko/20100101 Firefox/120.0" version="22.1.11" etag="aogxKP5fiyYO4NTLy8Hj" type="github">
  <diagram name="Page-1" id="XCHUG1uuz-irAuPSyPAd">
    <mxGraphModel>
      <root>
        <mxCell id="0" />
        <mxCell id="1" parent="0" />
      </root>
    </mxGraphModel>
  </diagram>
</mxfile>
